<svg aria-hidden="true" style="position: absolute; width: 0; height: 0; overflow: hidden;" version="1.1"
    xmlns="http://www.w3.org/2000/svg" xmlns:xlink="http://www.w3.org/1999/xlink">
    <defs>

        <symbol id="icon-apparater" viewBox="0 0 33 32">
            <path fill="#fff" style="fill: var(--color1, #fff)"
                d="M23.344 6.364c-0.446 0.463-0.689 1.085-0.675 1.727 0.027 1.338 1.136 2.4 2.475 2.373 0.643-0.013 1.255-0.281 1.701-0.744l3.224-3.354c0.638 1.266 0.866 2.698 0.655 4.099s-0.852 2.702-1.835 3.725c-0.983 1.022-2.259 1.715-3.652 1.983s-2.836 0.098-4.128-0.486c-1.707-1.27-2.464-2.006-3.5-3.355-0.638-1.266-0.866-2.698-0.655-4.099s0.853-2.702 1.835-3.724c0.983-1.022 2.259-1.715 3.652-1.983s2.836-0.098 4.128 0.486l-3.224 3.354z">
            </path>
            <path fill="#fff" style="fill: var(--color1, #fff)"
                d="M11.293 19.029l3.518 3.336-5.223 5.541c-0.446 0.463-1.057 0.731-1.701 0.744s-1.265-0.23-1.73-0.674c-0.464-0.445-0.732-1.056-0.745-1.698s0.23-1.264 0.675-1.727l5.205-5.522z">
            </path>
            <path fill="#fff" style="fill: var(--color1, #fff)"
                d="M15.732 13.043l11.434 10.841c1.13 1.072 1.19 2.85 0.135 3.996-1.079 1.171-2.91 1.233-4.065 0.137l-11.434-10.841c-0.931-0.883-1.136-2.246-0.589-3.339l-5.308-5.117-0.984 0.984-2.921-3.935 1.807-1.995 4.224 2.822-0.976 0.976 5.269 5.079c1.068-0.626 2.464-0.504 3.409 0.392z">
            </path>
        </symbol>
        <symbol id="icon-facebook" viewBox="0 0 32 32">
            <path fill="#fff" style="fill: var(--color1, #fff)"
                d="M21.333 2.667h-4c-1.768 0-3.464 0.702-4.714 1.953s-1.953 2.946-1.953 4.714v4h-4v5.333h4v10.667h5.333v-10.667h4l1.333-5.333h-5.333v-4c0-0.354 0.141-0.693 0.391-0.943s0.589-0.391 0.943-0.391h4v-5.333z">
            </path>
        </symbol>
        <symbol id="icon-haveabejde" viewBox="0 0 33 32">
            <path fill="#fff" style="fill: var(--color1, #fff)"
                d="M28.177 2.367h-2.82c-0.178 0-0.341 0.101-0.42 0.26l-2.4 4.8-2.4-4.8c-0.080-0.159-0.242-0.26-0.421-0.26h-10.342c-0.26 0-0.47 0.21-0.47 0.47v12.306l-4.448-2.831c-0.185-0.118-0.429-0.092-0.585 0.064l-2.35 2.35c-0.176 0.176-0.185 0.459-0.019 0.645l7.402 8.328v5.462c0 0.26 0.21 0.47 0.47 0.47h5.171v-7.521c0-0.26 0.21-0.47 0.47-0.47s0.47 0.21 0.47 0.47v7.521h12.692c0.26 0 0.47-0.21 0.47-0.47v-26.325c0-0.26-0.21-0.47-0.47-0.47zM15.485 19.29c0 0.26-0.21 0.47-0.47 0.47s-0.47-0.21-0.47-0.47v-0.94c0-0.26 0.21-0.47 0.47-0.47s0.47 0.21 0.47 0.47v0.94z">
            </path>
        </symbol>
        <symbol id="icon-home" viewBox="0 0 33 32">
            <path fill="#fff" style="fill: var(--color1, #fff)"
                d="M11.529 11.925h-5.040l-0.28 0.539h5.011l-2.19 3.826h-4.808l-0.28 0.539h4.78l-2.017 3.524h-4.616l1.241-2.386v-1.137h0.015v-0.539h-0.015v-3.826h0.015v-0.539h-0.015v-0.286h0.015v-1.064h3.829l1.413-2.716h5.269l-2.328 4.066z">
            </path>
            <path fill="#fff" style="fill: var(--color1, #fff)"
                d="M14.477 7.859l-2.328 4.066h4.376l2.328-4.066h-4.376z"></path>
            <path fill="#fff" style="fill: var(--color1, #fff)"
                d="M19.474 7.859l-2.328 4.066h4.711l1.041-2.031 7.071 14.247h2.713l-8.47-16.282h-4.739z"></path>
            <path fill="#fff" style="fill: var(--color1, #fff)"
                d="M21.581 12.464h-4.744l-2.19 3.826h4.973l1.961-3.826z"></path>
            <path fill="#fff" style="fill: var(--color1, #fff)"
                d="M19.345 16.828h-5.005l-2.017 3.524h5.217l1.806-3.524z"></path>
            <path fill="#fff" style="fill: var(--color1, #fff)"
                d="M17.263 20.89h-5.249l-1.861 3.251h5.444l1.666-3.251z"></path>
            <path fill="#fff" style="fill: var(--color1, #fff)"
                d="M9.532 24.141l1.861-3.251h-4.376l-1.861 3.251h4.376z"></path>
            <path fill="#fff" style="fill: var(--color1, #fff)"
                d="M4.536 24.141l1.861-3.251h-4.588l-1.691 3.251h4.418z"></path>
            <path fill="#fff" style="fill: var(--color1, #fff)" d="M11.841 12.464h4.376l-2.19 3.826h-4.376l2.19-3.826z">
            </path>
            <path fill="#fff" style="fill: var(--color1, #fff)"
                d="M9.343 16.828l-2.017 3.524h4.376l2.017-3.524h-4.376z"></path>
            <path fill="#fff" style="fill: var(--color1, #fff)" d="M20.31 17.978h2.374v2.374h-2.374v-2.374z"></path>
            <path fill="#fff" style="fill: var(--color1, #fff)" d="M20.31 20.946h2.374v2.374h-2.374v-2.374z"></path>
            <path fill="#fff" style="fill: var(--color1, #fff)" d="M25.652 17.978h-2.374v2.374h2.374v-2.374z"></path>
            <path fill="#fff" style="fill: var(--color1, #fff)" d="M23.277 20.946h2.374v2.374h-2.374v-2.374z"></path>
        </symbol>
        <symbol id="icon-Ic-Plumbing" viewBox="0 0 33 32">
            <path fill="#fff" style="fill: var(--color1, #fff)"
                d="M27.083 5.889l-3.183-3.048c-1.171-1.121-3.078-1.121-4.25 0l-4.25 4.069 3.183 3.048 3.183-3.048 5.316 5.090c0.844-0.812 1.317-1.91 1.317-3.055s-0.474-2.244-1.317-3.055z">
            </path>
            <path fill="#fff" style="fill: var(--color1, #fff)"
                d="M7.016 18.386c0.821 0.819 2.142 0.819 2.949 0l3.436-3.429-2.949-2.957-3.436 3.429c-0.821 0.819-0.821 2.138 0 2.957z">
            </path>
            <path fill="#fff" style="fill: var(--color1, #fff)"
                d="M20.832 10.134l4.139 4.011c0.136 0.131 0.244 0.287 0.317 0.458s0.111 0.355 0.111 0.541c0 0.186-0.038 0.369-0.111 0.541s-0.181 0.327-0.317 0.458c-0.136 0.131-0.297 0.235-0.475 0.306s-0.368 0.108-0.56 0.108c-0.192 0-0.382-0.037-0.56-0.108s-0.339-0.175-0.475-0.306l-13.489 13.026c-1.145 1.106-3.009 1.106-4.154 0s-1.145-2.906 0-4.011l10.377-10.021-4.668-4.508c-0.206-0.196-0.369-0.43-0.481-0.688s-0.169-0.535-0.169-0.814 0.057-0.556 0.169-0.814c0.112-0.258 0.275-0.492 0.481-0.688 0.851-0.836 2.246-0.836 3.112 0.014l4.668 4.507 2.084-2.013z">
            </path>
        </symbol>
        <symbol id="icon-instagram" viewBox="0 0 32 32">
            <path fill="#fff" style="fill: var(--color1, #fff)"
                d="M20 2.667h-13.333c-3.682 0-6.667 2.985-6.667 6.667v13.333c0 3.682 2.985 6.667 6.667 6.667h13.333c3.682 0 6.667-2.985 6.667-6.667v-13.333c0-3.682-2.985-6.667-6.667-6.667z">
            </path>
            <path fill="none" stroke="#15b2f5" style="stroke: var(--color2, #15b2f5)" stroke-linejoin="round"
                stroke-linecap="round" stroke-miterlimit="4" stroke-width="2.6667"
                d="M18.666 15.16c0.165 1.11-0.025 2.243-0.542 3.239s-1.334 1.803-2.336 2.308c-1.002 0.504-2.137 0.68-3.245 0.502s-2.131-0.701-2.924-1.494c-0.793-0.793-1.316-1.816-1.494-2.924s-0.003-2.243 0.502-3.245c0.504-1.002 1.312-1.82 2.308-2.336s2.129-0.706 3.239-0.542c1.132 0.168 2.18 0.695 2.989 1.504s1.337 1.857 1.504 2.989z">
            </path>
            <path fill="none" stroke="#15b2f5" style="stroke: var(--color2, #15b2f5)" stroke-linejoin="round"
                stroke-linecap="round" stroke-miterlimit="4" stroke-width="2.6667" d="M20.667 8.667h0.013"></path>
        </symbol>
        <symbol id="icon-lasesmed" viewBox="0 0 33 32">
            <path fill="#fff" style="fill: var(--color1, #fff)"
                d="M29.436 7.983h-13.456c-0.456-0.447-1.035-0.75-1.662-0.87s-1.277-0.052-1.866 0.196c-0.589 0.248-1.092 0.664-1.446 1.196s-0.542 1.157-0.542 1.796c0 0.639 0.189 1.264 0.542 1.796s0.857 0.948 1.446 1.196c0.589 0.248 1.238 0.316 1.866 0.196s1.206-0.422 1.662-0.87h13.456c0.123 0 0.241-0.049 0.328-0.136s0.136-0.205 0.136-0.328v-3.709c0-0.123-0.049-0.241-0.136-0.328s-0.205-0.136-0.328-0.136z">
            </path>
            <path fill="#fff" style="fill: var(--color1, #fff)"
                d="M17.728 0.584h-9.146c-0.606 0-1.188 0.241-1.617 0.67s-0.67 1.010-0.67 1.617l-0.437 26.261c0 0.606 0.241 1.188 0.67 1.617s1.010 0.67 1.617 0.67h9.146c0.606 0 1.188-0.241 1.617-0.67s0.67-1.010 0.67-1.617l0.437-14.829h-3.056c-1.054 0.852-2.402 1.253-3.751 1.116s-2.589-0.8-3.451-1.846c-0.566-0.686-0.944-1.506-1.098-2.381s-0.079-1.776 0.218-2.613c0.297-0.838 0.806-1.584 1.478-2.166s1.482-0.981 2.353-1.156c0.336-0.066 0.677-0.099 1.020-0.099 1.176-0.003 2.318 0.401 3.231 1.143h3.057v-3.43c0-0.606-0.241-1.188-0.67-1.617s-1.010-0.67-1.617-0.67zM12.718 19.413c0.502-0.002 0.992 0.162 1.391 0.466s0.687 0.733 0.817 1.218c0.13 0.485 0.097 1-0.096 1.464s-0.534 0.851-0.97 1.101v2.609c0 0.152-0.060 0.297-0.167 0.404s-0.253 0.167-0.404 0.167h-1.143c-0.152 0-0.297-0.060-0.404-0.167s-0.167-0.253-0.167-0.404v-2.609c-0.436-0.25-0.777-0.637-0.969-1.101s-0.226-0.979-0.096-1.464c0.131-0.485 0.418-0.914 0.818-1.218s0.889-0.469 1.391-0.466z">
            </path>
        </symbol>
        <symbol id="icon-mail" viewBox="0 0 32 32">
            <path fill="#fff" style="fill: var(--color1, #fff)"
                d="M2.667 5.333h21.333c1.467 0 2.667 1.2 2.667 2.667v16c0 1.467-1.2 2.667-2.667 2.667h-21.333c-1.467 0-2.667-1.2-2.667-2.667v-16c0-1.467 1.2-2.667 2.667-2.667z">
            </path>
            <path fill="none" stroke="#15b2f5" style="stroke: var(--color2, #15b2f5)" stroke-linejoin="round"
                stroke-linecap="round" stroke-miterlimit="4" stroke-width="2.6667"
                d="M26.667 8l-13.333 9.333-13.333-9.333"></path>
        </symbol>
        <symbol id="icon-menu" viewBox="0 0 32 32">
            <path fill="none" stroke="#fff" style="stroke: var(--color1, #fff)" stroke-linejoin="round"
                stroke-linecap="round" stroke-miterlimit="4" stroke-width="2.6667" d="M4 8h24"></path>
            <path fill="none" stroke="#fff" style="stroke: var(--color1, #fff)" stroke-linejoin="round"
                stroke-linecap="round" stroke-miterlimit="4" stroke-width="2.6667" d="M4 16h24"></path>
            <path fill="none" stroke="#fff" style="stroke: var(--color1, #fff)" stroke-linejoin="round"
                stroke-linecap="round" stroke-miterlimit="4" stroke-width="2.6667" d="M4 24h24"></path>
        </symbol>
        <symbol id="icon-phone" viewBox="0 0 34 32">
            <path fill="#15b2f5" style="fill: var(--color2, #15b2f5)"
                d="M30.334 22.559v4c0.001 0.371-0.075 0.739-0.223 1.079s-0.367 0.646-0.641 0.897c-0.274 0.251-0.597 0.442-0.948 0.561s-0.725 0.163-1.094 0.13c-4.103-0.446-8.044-1.848-11.507-4.093-3.222-2.047-5.953-4.778-8-8-2.253-3.478-3.656-7.439-4.093-11.56-0.033-0.369 0.010-0.74 0.129-1.091s0.308-0.673 0.558-0.947c0.25-0.273 0.553-0.492 0.892-0.641s0.705-0.227 1.075-0.227h4c0.647-0.006 1.274 0.223 1.765 0.645s0.811 1.008 0.902 1.649c0.169 1.28 0.482 2.537 0.933 3.747 0.179 0.477 0.218 0.996 0.112 1.495s-0.353 0.956-0.712 1.319l-1.693 1.693c1.898 3.338 4.662 6.102 8 8l1.693-1.693c0.362-0.358 0.82-0.606 1.319-0.712s1.017-0.068 1.495 0.112c1.21 0.451 2.466 0.765 3.747 0.933 0.648 0.091 1.239 0.418 1.662 0.917s0.648 1.136 0.631 1.79z">
            </path>
        </symbol>
        <symbol id="icon-remodeling" viewBox="0 0 33 32">
            <path fill="#fff" style="fill: var(--color1, #fff)"
                d="M30.4 17h-28c-0.265 0-0.52 0.105-0.707 0.293s-0.293 0.442-0.293 0.707v5c0.002 1.591 0.634 3.116 1.759 4.241s2.65 1.758 4.241 1.759h1v2c0 0.265 0.105 0.52 0.293 0.707s0.442 0.293 0.707 0.293c0.265 0 0.52-0.105 0.707-0.293s0.293-0.442 0.293-0.707v-2h12v2c0 0.265 0.105 0.52 0.293 0.707s0.442 0.293 0.707 0.293c0.265 0 0.52-0.105 0.707-0.293s0.293-0.442 0.293-0.707v-2h1c1.591-0.002 3.116-0.634 4.241-1.759s1.758-2.65 1.759-4.241v-5c0-0.265-0.105-0.52-0.293-0.707s-0.442-0.293-0.707-0.293z">
            </path>
            <path fill="#fff" style="fill: var(--color1, #fff)"
                d="M16.4 6.1v-1.1c0-0.796 0.316-1.559 0.879-2.121s1.326-0.879 2.121-0.879 1.559 0.316 2.121 0.879c0.563 0.563 0.879 1.326 0.879 2.121v10h2v-10c0-1.326-0.527-2.598-1.464-3.536s-2.209-1.464-3.536-1.464c-1.326 0-2.598 0.527-3.536 1.464s-1.464 2.209-1.464 3.536v1.1c-1.129 0.232-2.143 0.846-2.871 1.739s-1.127 2.009-1.129 3.161c0 0.265 0.105 0.52 0.293 0.707s0.442 0.293 0.707 0.293h8c0.265 0 0.52-0.105 0.707-0.293s0.293-0.442 0.293-0.707c-0.001-1.152-0.4-2.269-1.129-3.161s-1.743-1.507-2.871-1.739z">
            </path>
        </symbol>
        <symbol id="icon-right" viewBox="0 0 32 32">
            <path fill="none" stroke="#15b2f5" style="stroke: var(--color2, #15b2f5)" stroke-linejoin="round"
                stroke-linecap="round" stroke-miterlimit="4" stroke-width="2.6667" d="M12 24l8-8-8-8"></path>
        </symbol>
        <symbol id="icon-skimmel" viewBox="0 0 33 32">
            <path fill="#fff" style="fill: var(--color1, #fff)"
                d="M4.4 7.2c0-0.442 0.358-0.8 0.8-0.8h9.665c0.442 0 0.8 0.358 0.8 0.8v3.805c0 0.442-0.358 0.8-0.8 0.8h-9.665c-0.442 0-0.8-0.358-0.8-0.8v-3.805z">
            </path>
            <path fill="#fff" style="fill: var(--color1, #fff)"
                d="M4.4 14.497c0-0.442 0.358-0.8 0.8-0.8h4.767c0.442 0 0.8 0.358 0.8 0.8v3.805c0 0.442-0.358 0.8-0.8 0.8h-4.767c-0.442 0-0.8-0.358-0.8-0.8v-3.805z">
            </path>
            <path fill="#fff" style="fill: var(--color1, #fff)"
                d="M12.237 14.497c0-0.442 0.358-0.8 0.8-0.8h9.665c0.442 0 0.8 0.358 0.8 0.8v3.805c0 0.442-0.358 0.8-0.8 0.8h-9.665c-0.442 0-0.8-0.358-0.8-0.8v-3.805z">
            </path>
            <path fill="#fff" style="fill: var(--color1, #fff)"
                d="M4.4 21.795c0-0.442 0.358-0.8 0.8-0.8h9.665c0.442 0 0.8 0.358 0.8 0.8v3.805c0 0.442-0.358 0.8-0.8 0.8h-9.665c-0.442 0-0.8-0.358-0.8-0.8v-3.805z">
            </path>
            <path fill="#fff" style="fill: var(--color1, #fff)"
                d="M17.135 21.795c0-0.442 0.358-0.8 0.8-0.8h9.665c0.442 0 0.8 0.358 0.8 0.8v3.805c0 0.442-0.358 0.8-0.8 0.8h-9.665c-0.442 0-0.8-0.358-0.8-0.8v-3.805z">
            </path>
        </symbol>
        <symbol id="icon-Vector" viewBox="0 0 45 32">
            <path fill="none" stroke="#15b2f5" style="stroke: var(--color2, #15b2f5)" stroke-linejoin="round"
                stroke-linecap="round" stroke-miterlimit="4" stroke-width="6.4"
                d="M39.467 3.2l-23.467 23.467-10.667-10.667"></path>
        </symbol>
        <symbol id="icon-link" viewBox="0 0 32 32">
            <path fill="#fff" style="fill: var(--color1, #fff)"
                d="M8.090 30.742c0.052-0.126 0.079-0.261 0.078-0.398v-18.54c0-0.275-0.109-0.54-0.304-0.735s-0.458-0.305-0.734-0.306h-4.422c-0.276 0-0.541 0.11-0.736 0.305s-0.305 0.46-0.305 0.736v18.54c-0 0.137 0.026 0.272 0.078 0.399s0.129 0.241 0.226 0.338c0.097 0.097 0.212 0.173 0.338 0.226s0.262 0.079 0.399 0.078h4.422c0.137 0 0.272-0.027 0.398-0.079s0.241-0.129 0.337-0.226c0.096-0.097 0.173-0.211 0.225-0.338z">
            </path>
            <path fill="#fff" style="fill: var(--color1, #fff)"
                d="M2.587 8.3c0.69 0.461 1.501 0.707 2.331 0.707 1.113 0 2.18-0.442 2.967-1.229s1.229-1.854 1.229-2.967c0-0.83-0.246-1.641-0.707-2.331s-1.116-1.228-1.883-1.545c-0.767-0.318-1.61-0.401-2.424-0.239s-1.562 0.562-2.148 1.148c-0.587 0.587-0.986 1.334-1.148 2.148s-0.079 1.658 0.239 2.424c0.318 0.767 0.855 1.422 1.545 1.883z">
            </path>
            <path fill="#fff" style="fill: var(--color1, #fff)"
                d="M31.212 30.783c0.048-0.116 0.072-0.241 0.072-0.367l-0.006-8.962v-0.076c0-3.915 0.001-10.922-7.552-10.922-3.432 0-5.041 1.253-6.126 2.884v-1.617c0-0.254-0.101-0.497-0.28-0.676s-0.423-0.28-0.676-0.28h-4.593c-0.126 0-0.25 0.025-0.366 0.073s-0.221 0.119-0.31 0.207c-0.089 0.089-0.159 0.194-0.207 0.31s-0.072 0.24-0.072 0.366v18.705c-0 0.126 0.024 0.25 0.072 0.366s0.118 0.222 0.207 0.31c0.089 0.089 0.194 0.159 0.31 0.207s0.24 0.073 0.366 0.073h4.593c0.251-0.004 0.491-0.106 0.667-0.285s0.275-0.42 0.275-0.672v-10.031c0.118-1.348 0.713-4.35 3.636-4.35 3.774 0 3.393 4.386 3.393 5.684v8.685c-0 0.126 0.024 0.25 0.072 0.367s0.118 0.222 0.207 0.311c0.089 0.089 0.194 0.159 0.311 0.207s0.241 0.072 0.367 0.072h4.755c0.126 0 0.25-0.024 0.367-0.072s0.222-0.118 0.311-0.207c0.089-0.089 0.159-0.194 0.207-0.311z">
            </path>
        </symbol>
        <symbol id="icon-instagram1" viewBox="0 0 32 32">
            <path fill="#fff" style="fill: var(--color1, #fff)"
                d="M31.969 9.408c-0.075-1.7-0.35-2.869-0.744-3.882-0.406-1.075-1.031-2.038-1.85-2.838-0.8-0.813-1.769-1.444-2.832-1.844-1.019-0.394-2.182-0.669-3.882-0.744-1.713-0.081-2.257-0.1-6.601-0.1s-4.888 0.019-6.595 0.094c-1.7 0.075-2.869 0.35-3.882 0.744-1.075 0.406-2.038 1.031-2.838 1.85-0.813 0.8-1.444 1.769-1.844 2.832-0.394 1.019-0.669 2.182-0.744 3.882-0.081 1.713-0.1 2.257-0.1 6.601s0.019 4.888 0.094 6.595c0.075 1.7 0.35 2.869 0.744 3.882 0.406 1.075 1.038 2.038 1.85 2.838 0.8 0.813 1.769 1.444 2.832 1.844 1.019 0.394 2.182 0.669 3.882 0.744 1.706 0.075 2.25 0.094 6.595 0.094s4.888-0.018 6.595-0.094c1.7-0.075 2.869-0.35 3.882-0.744 2.151-0.831 3.851-2.532 4.682-4.682 0.394-1.019 0.669-2.182 0.744-3.882 0.075-1.707 0.094-2.25 0.094-6.595s-0.006-4.888-0.081-6.595zM29.087 22.473c-0.069 1.563-0.331 2.407-0.55 2.969-0.538 1.394-1.644 2.5-3.038 3.038-0.563 0.219-1.413 0.481-2.969 0.55-1.688 0.075-2.194 0.094-6.464 0.094s-4.782-0.019-6.464-0.094c-1.563-0.069-2.407-0.331-2.969-0.55-0.694-0.256-1.325-0.663-1.838-1.194-0.531-0.519-0.938-1.144-1.194-1.838-0.219-0.563-0.481-1.413-0.55-2.969-0.075-1.688-0.094-2.194-0.094-6.464s0.019-4.782 0.094-6.464c0.069-1.563 0.331-2.407 0.55-2.969 0.256-0.694 0.663-1.325 1.2-1.838 0.519-0.531 1.144-0.938 1.838-1.194 0.563-0.219 1.413-0.481 2.969-0.55 1.688-0.075 2.194-0.094 6.464-0.094 4.276 0 4.782 0.019 6.464 0.094 1.563 0.069 2.407 0.331 2.969 0.55 0.694 0.256 1.325 0.662 1.838 1.194 0.531 0.519 0.938 1.144 1.194 1.838 0.219 0.563 0.481 1.413 0.55 2.969 0.075 1.688 0.094 2.194 0.094 6.464s-0.019 4.77-0.094 6.458z">
            </path>
            <path fill="#fff" style="fill: var(--color1, #fff)"
                d="M16.059 7.783c-4.538 0-8.22 3.682-8.22 8.22s3.682 8.22 8.22 8.22c4.538 0 8.22-3.682 8.22-8.22s-3.682-8.22-8.22-8.22zM16.059 21.335c-2.944 0-5.332-2.388-5.332-5.332s2.388-5.332 5.332-5.332c2.944 0 5.332 2.388 5.332 5.332s-2.388 5.332-5.332 5.332z">
            </path>
            <path fill="#fff" style="fill: var(--color1, #fff)"
                d="M26.524 7.458c0 1.060-0.859 1.919-1.919 1.919s-1.919-0.859-1.919-1.919c0-1.060 0.859-1.919 1.919-1.919s1.919 0.859 1.919 1.919z">
            </path>
        </symbol>
        <symbol id="icon-facebook1" viewBox="0 0 15 32">
            <path fill="#fff" style="fill: var(--color1, #fff)"
                d="M9.485 15.488h4.339l0.562-5.464h-4.898v-3.212c0-1.207 0.8-1.489 1.363-1.489h3.458v-5.305l-4.764-0.018c-5.285 0-6.488 3.956-6.488 6.488v3.535h-3.056v5.465h3.056v15.463h6.429v-15.463z">
            </path>
        </symbol>
        <symbol id="icon-Logo-footer" viewBox="0 0 28 32">
            <path fill="#fff" style="fill: var(--color1, #fff)"
                d="M14.63 5.167c1.31-0.963 3.093-0.963 4.403 0l7.897 5.807c0.952 0.7 1.515 1.812 1.515 2.994v11.845h-7.432v-9.965l-4.181-3.074-4.181 3.074v9.965h-7.432v-11.845c0-1.182 0.562-2.294 1.515-2.994l7.897-5.807z">
            </path>
            <path fill="#fff" style="fill: var(--color1, #fff)" d="M12.699 25.812h8.304v6.010h-8.304v-6.010z"></path>
        </symbol>
        <symbol id="icon-Logo-header" viewBox="0 0 32 32">
            <path fill="#15b2f5" style="fill: var(--color2, #15b2f5)"
                d="M14.080 6.63c1.142-0.84 2.698-0.84 3.84 0l6.888 5.065c0.831 0.611 1.321 1.58 1.321 2.611v10.332h-6.483v-8.692l-3.646-2.681-3.647 2.681v8.692h-6.483v-10.332c0-1.031 0.491-2.001 1.321-2.611l6.888-5.065z">
            </path>
            <path fill="#fff" style="fill: var(--color1, #fff)" d="M12.395 24.638h7.243v5.242h-7.243v-5.242z"></path>
        </symbol>

    </defs>
</svg>